<svg width="251" height="102" viewBox="0 0 251 102" fill="none" xmlns="http://www.w3.org/2000/svg">
<path d="M88.8911 54.0412H100.768L87.1095 98.5802H74.0447L88.8911 54.0412Z" fill="#0C0D6F"/>
<path fill-rule="evenodd" clip-rule="evenodd" d="M95.4234 0.594433H112.051L117.99 46.915H104.331L103.144 38.601H79.3894L66.9185 54.0412H84.7341L42.5705 98.5802H27.7242L21.7856 54.0412H33.0689L37.8197 89.0786L58.0107 66.5121H43.7582L95.4234 0.594433ZM100.174 12.4715L87.1095 28.5055H102.55L100.174 12.4715Z" fill="#0C0D6F"/>
<path d="M36.632 0.594433L21.7856 46.915H35.4443L40.1951 29.6932H63.3554L66.3246 20.1916H43.1644L46.1336 11.2838H78.2017L81.171 0.594433H36.632Z" fill="#0C0D6F"/>
<path fill-rule="evenodd" clip-rule="evenodd" d="M107.894 54.0412L93.6419 98.5802C93.6419 98.5802 104.925 98.5802 120.365 98.5802C135.805 98.5802 143.485 90.7544 147.683 77.7954C151.839 66.2601 152.433 54.0412 135.805 54.0412C119.178 54.0412 107.894 54.0412 107.894 54.0412ZM108.488 88.4847L116.208 64.1367C116.208 64.1367 120.365 64.1367 131.648 64.1367C142.932 64.1367 136.993 76.6077 134.618 81.9523C132.714 86.236 126.898 88.4847 122.147 88.4847C117.396 88.4847 108.488 88.4847 108.488 88.4847Z" fill="#0C0D6F"/>
<path d="M172.031 0.593872L168.467 11.2838C168.467 11.2838 148.605 11.2834 141.744 11.2837C134.883 11.284 135.805 19.5977 140.556 19.5977H158.966C167.874 19.5977 166.18 32.6255 163.123 37.4133C159.686 42.7941 156.59 46.915 147.683 46.915H122.741L121.553 36.8195H147.089C153.027 36.8195 155.403 28.5055 150.652 28.5055H131.055C119.361 28.5055 125.116 0.594307 140.556 0.594307L172.031 0.593872Z" fill="#0C0D6F"/>
<path d="M177.375 0.593872L173.812 11.2838H190.44L179.157 46.915H191.628L202.911 11.2838L218.351 11.2837L222.508 0.594307L177.375 0.593872Z" fill="#0C0D6F"/>
<path d="M160.747 54.0412H201.723L198.754 64.1367H169.061L166.686 71.8563H193.409L191.034 80.7641H163.717L161.341 88.4847H191.034L188.658 98.5802H145.901L160.747 54.0412Z" fill="#0C0D6F"/>
<path fill-rule="evenodd" clip-rule="evenodd" d="M230.228 53.4468C254.576 53.4468 251.183 65.3239 248.638 76.0132C246.092 86.7026 240.324 98.5802 217.163 98.5802C194.003 98.5802 195.012 86.7026 198.754 76.0132C202.495 65.3239 205.88 53.4468 230.228 53.4468ZM237.354 76.0132C239.391 68.887 240.324 63.5423 227.853 63.5423C215.382 63.5423 211.225 70.0747 209.443 76.0132C207.662 81.9518 207.662 89.078 218.945 89.078C230.228 89.078 235.318 83.1395 237.354 76.0132Z" fill="#0C0D6F"/>
<path d="M172.031 0.593872L168.467 11.2838C168.467 11.2838 148.605 11.2834 141.744 11.2837C134.883 11.284 135.805 19.5977 140.556 19.5977M172.031 0.593872C172.031 0.593872 155.996 0.594307 140.556 0.594307M172.031 0.593872L140.556 0.594307M140.556 19.5977C145.307 19.5977 150.058 19.5977 158.966 19.5977M140.556 19.5977H158.966M158.966 19.5977C167.874 19.5977 166.18 32.6255 163.123 37.4133C159.686 42.7941 156.59 46.915 147.683 46.915M147.683 46.915C138.775 46.915 122.741 46.915 122.741 46.915M147.683 46.915H122.741M122.741 46.915L121.553 36.8195M121.553 36.8195C121.553 36.8195 141.15 36.8195 147.089 36.8195M121.553 36.8195H147.089M147.089 36.8195C153.027 36.8195 155.403 28.5055 150.652 28.5055M150.652 28.5055C145.901 28.5055 138.181 28.5055 131.055 28.5055M150.652 28.5055H131.055M131.055 28.5055C119.361 28.5055 125.116 0.594307 140.556 0.594307M36.632 0.594433L21.7856 46.915H35.4443L40.1951 29.6932H63.3554L66.3246 20.1916H43.1644L46.1336 11.2838H78.2017L81.171 0.594433H36.632ZM95.4234 0.594433H112.051L117.99 46.915H104.331L103.144 38.601H79.3894L66.9185 54.0412H84.7341L42.5705 98.5802H27.7242L21.7856 54.0412H33.0689L37.8197 89.0786L58.0107 66.5121H43.7582L95.4234 0.594433ZM87.1095 28.5055L100.174 12.4715L102.55 28.5055H87.1095ZM88.8911 54.0412H100.768L87.1095 98.5802H74.0447L88.8911 54.0412ZM107.894 54.0412L93.6419 98.5802C93.6419 98.5802 104.925 98.5802 120.365 98.5802C135.805 98.5802 143.485 90.7544 147.683 77.7954C151.839 66.2601 152.433 54.0412 135.805 54.0412C119.178 54.0412 107.894 54.0412 107.894 54.0412ZM116.208 64.1367L108.488 88.4847C108.488 88.4847 117.396 88.4847 122.147 88.4847C126.898 88.4847 132.714 86.236 134.618 81.9523C136.993 76.6077 142.932 64.1367 131.648 64.1367C120.365 64.1367 116.208 64.1367 116.208 64.1367ZM177.375 0.593872L173.812 11.2838H190.44L179.157 46.915H191.628L202.911 11.2838L218.351 11.2837L222.508 0.594307L177.375 0.593872ZM160.747 54.0412H201.723L198.754 64.1367H169.061L166.686 71.8563H193.409L191.034 80.7641H163.717L161.341 88.4847H191.034L188.658 98.5802H145.901L160.747 54.0412ZM230.228 53.4468C254.576 53.4468 251.183 65.3239 248.638 76.0132C246.092 86.7026 240.324 98.5802 217.163 98.5802C194.003 98.5802 195.012 86.7026 198.754 76.0132C202.495 65.3239 205.88 53.4468 230.228 53.4468ZM227.853 63.5423C240.324 63.5423 239.391 68.887 237.354 76.0132C235.318 83.1395 230.228 89.078 218.945 89.078C207.662 89.078 207.662 81.9518 209.443 76.0132C211.225 70.0747 215.382 63.5423 227.853 63.5423Z" stroke="#0C0D6F" stroke-width="1.18771"/>
<path d="M14.6592 54.0407L20.5977 98.5797L24.1608 98.5797L18.2223 54.0406L14.6592 54.0407Z" fill="#0C0D6F" stroke="#0C0D6F" stroke-width="1.18771"/>
<path d="M7.5332 54.0407L13.4717 98.5797L14.6594 98.5797L8.72091 54.0406L7.5332 54.0407Z" fill="#0C0D6F" stroke="#0C0D6F" stroke-width="1.18771"/>
<path d="M0.406738 54.0406L6.34527 98.5797L6.93912 98.5797L1.00059 54.0407L0.406738 54.0406Z" fill="#0C0D6F" stroke="#0C0D6F" stroke-width="0.593853"/>
<path d="M14.6592 46.9144L29.5055 0.593872H33.0686L18.2223 46.9144H14.6592Z" fill="#0C0D6F" stroke="#0C0D6F" stroke-width="1.18771"/>
<path d="M7.5332 46.9144L22.3795 0.593872H23.5672L8.72091 46.9144H7.5332Z" fill="#0C0D6F" stroke="#0C0D6F" stroke-width="1.18771"/>
<path d="M0.406738 46.9144L15.2531 0.593872H15.8469L1.00059 46.9144H0.406738Z" fill="#0C0D6F" stroke="#0C0D6F" stroke-width="0.593853"/>
<path d="M84.7339 54.0413H66.9183L100.174 12.4709L43.758 66.5122H58.0105L42.5703 98.5803L84.7339 54.0413Z" fill="#FDC717" stroke="#FDC717" stroke-width="1.18771" stroke-miterlimit="16"/>
</svg>
